<svg width="22" height="18" viewBox="0 0 22 18" fill="none" xmlns="http://www.w3.org/2000/svg">
<path d="M10 5L10 2L7 2C6.44772 2 6 1.55228 6 1C6 0.44772 6.44772 0 7 0L11 0L11.1025 0.00487995C11.6067 0.05621 12 0.48232 12 1V5C12 5.55228 11.5523 6 11 6C10.4477 6 10 5.55228 10 5Z" fill="#565D6D"/>
<path d="M18 7C18 6.44772 17.5523 6 17 6L5 6C4.44772 6 4 6.44772 4 7L4 15C4 15.5523 4.44772 16 5 16L17 16C17.5523 16 18 15.5523 18 15L18 7ZM20 15C20 16.6569 18.6569 18 17 18L5 18C3.34315 18 2 16.6569 2 15L2 7C2 5.34315 3.34315 4 5 4L17 4C18.6569 4 20 5.34315 20 7L20 15Z" fill="#565D6D"/>
<path d="M3 10C3.55228 10 4 10.4477 4 11C4 11.5523 3.55228 12 3 12H1C0.44772 12 0 11.5523 0 11C0 10.4477 0.44772 10 1 10H3Z" fill="#565D6D"/>
<path d="M21 10C21.5523 10 22 10.4477 22 11C22 11.5523 21.5523 12 21 12H19C18.4477 12 18 11.5523 18 11C18 10.4477 18.4477 10 19 10H21Z" fill="#565D6D"/>
<path d="M13 12V10C13 9.4477 13.4477 9 14 9C14.5523 9 15 9.4477 15 10V12C15 12.5523 14.5523 13 14 13C13.4477 13 13 12.5523 13 12Z" fill="#565D6D"/>
<path d="M7 12L7 10C7 9.4477 7.44772 9 8 9C8.55228 9 9 9.4477 9 10V12C9 12.5523 8.55228 13 8 13C7.44772 13 7 12.5523 7 12Z" fill="#565D6D"/>
</svg>
