<svg width="24" height="24" viewBox="0 0 24 24" fill="none" xmlns="http://www.w3.org/2000/svg">
<path d="M17.2928 5.29295C17.6833 4.90243 18.3163 4.90243 18.7068 5.29295C19.0974 5.68348 19.0974 6.31649 18.7068 6.70702L7.7068 17.707C7.31628 18.0975 6.68326 18.0975 6.29274 17.707L1.29274 12.707L1.22438 12.6308C0.904024 12.2381 0.926618 11.6591 1.29274 11.293C1.65885 10.9268 2.23786 10.9042 2.63063 11.2246L2.7068 11.293L6.99977 15.5859L17.2928 5.29295Z" fill="#565D6D"/>
<path d="M21.3689 9.22462C21.7616 8.90427 22.3406 8.92686 22.7067 9.29298C23.0729 9.65909 23.0955 10.2381 22.7751 10.6309L22.7067 10.707L15.2067 18.207C14.8406 18.5732 14.2616 18.5958 13.8689 18.2754L13.7927 18.207L12.2927 16.707L12.2243 16.6309C11.904 16.2381 11.9266 15.6591 12.2927 15.293C12.6588 14.9269 13.2378 14.9043 13.6306 15.2246L13.7067 15.293L14.4997 16.0859L21.2927 9.29298L21.3689 9.22462Z" fill="#565D6D"/>
</svg>
