<svg width="20" height="20" viewBox="0 0 20 20" fill="none" xmlns="http://www.w3.org/2000/svg">
<path d="M9.16992 18.33V16.67C9.16992 16.2116 9.54151 15.84 9.99992 15.84C10.4583 15.84 10.8299 16.2116 10.8299 16.67V18.33C10.8299 18.7884 10.4583 19.16 9.99992 19.16C9.54151 19.16 9.16992 18.7884 9.16992 18.33Z" fill="#636AE8"/>
<path d="M9.16992 3.33003V1.67003C9.16992 1.21163 9.54151 0.840027 9.99992 0.840027C10.4583 0.840027 10.8299 1.21163 10.8299 1.67003V3.33003C10.8299 3.78842 10.4583 4.16003 9.99992 4.16003C9.54151 4.16003 9.16992 3.78842 9.16992 3.33003Z" fill="#636AE8"/>
<path d="M13.34 18.33V16.67C13.34 16.2116 13.7116 15.84 14.17 15.84C14.6284 15.84 15 16.2116 15 16.67V18.33C15 18.7884 14.6284 19.16 14.17 19.16C13.7116 19.16 13.34 18.7884 13.34 18.33Z" fill="#636AE8"/>
<path d="M13.34 3.33003V1.67003C13.34 1.21163 13.7116 0.840027 14.17 0.840027C14.6284 0.840027 15 1.21163 15 1.67003V3.33003C15 3.78842 14.6284 4.16003 14.17 4.16003C13.7116 4.16003 13.34 3.78842 13.34 3.33003Z" fill="#636AE8"/>
<path d="M3.32997 9.17004C3.78836 9.17004 4.15997 9.54163 4.15997 10C4.15997 10.4585 3.78836 10.83 3.32997 10.83H1.66997C1.21157 10.83 0.839966 10.4585 0.839966 10C0.839966 9.54163 1.21157 9.17004 1.66997 9.17004H3.32997Z" fill="#636AE8"/>
<path d="M3.32997 13.34C3.78836 13.34 4.15997 13.7116 4.15997 14.17C4.15997 14.6284 3.78836 15 3.32997 15H1.66997C1.21157 15 0.839966 14.6284 0.839966 14.17C0.839966 13.7116 1.21157 13.34 1.66997 13.34H3.32997Z" fill="#636AE8"/>
<path d="M3.32997 5C3.78836 5 4.15997 5.37161 4.15997 5.83C4.15997 6.28839 3.78836 6.66 3.32997 6.66L1.66997 6.66C1.21157 6.66 0.839966 6.28839 0.839966 5.83C0.839966 5.37161 1.21157 5 1.66997 5L3.32997 5Z" fill="#636AE8"/>
<path d="M18.33 9.17004C18.7884 9.17004 19.16 9.54163 19.16 10C19.16 10.4585 18.7884 10.83 18.33 10.83H16.67C16.2116 10.83 15.84 10.4585 15.84 10C15.84 9.54163 16.2116 9.17004 16.67 9.17004H18.33Z" fill="#636AE8"/>
<path d="M18.33 13.34C18.7884 13.34 19.16 13.7116 19.16 14.17C19.16 14.6284 18.7884 15 18.33 15H16.67C16.2116 15 15.84 14.6284 15.84 14.17C15.84 13.7116 16.2116 13.34 16.67 13.34H18.33Z" fill="#636AE8"/>
<path d="M18.33 5C18.7884 5 19.16 5.37161 19.16 5.83C19.16 6.28839 18.7884 6.66 18.33 6.66L16.67 6.66C16.2116 6.66 15.84 6.28839 15.84 5.83C15.84 5.37161 16.2116 5 16.67 5L18.33 5Z" fill="#636AE8"/>
<path d="M5 18.33L5 16.67C5 16.2116 5.37161 15.84 5.83 15.84C6.28839 15.84 6.66 16.2116 6.66 16.67L6.66 18.33C6.66 18.7884 6.28839 19.16 5.83 19.16C5.37161 19.16 5 18.7884 5 18.33Z" fill="#636AE8"/>
<path d="M5 3.33003L5 1.67003C5 1.21163 5.37161 0.840027 5.83 0.840027C6.28839 0.840027 6.66 1.21163 6.66 1.67003L6.66 3.33003C6.66 3.78842 6.28839 4.16003 5.83 4.16003C5.37161 4.16003 5 3.78842 5 3.33003Z" fill="#636AE8"/>
<path d="M15.8099 5.02003C15.8099 4.56164 15.4383 4.19003 14.9799 4.19003L5.01991 4.19003C4.56151 4.19003 4.18991 4.56164 4.18991 5.02003L4.18991 14.98C4.18991 15.4384 4.56151 15.81 5.01991 15.81L14.9799 15.81C15.4383 15.81 15.8099 15.4384 15.8099 14.98L15.8099 5.02003ZM17.4699 14.98C17.4699 16.3553 16.3551 17.47 14.9799 17.47L5.01991 17.47C3.64472 17.47 2.52991 16.3553 2.52991 14.98L2.52991 5.02003C2.52991 3.64484 3.64472 2.53003 5.01991 2.53003L14.9799 2.53003C16.3551 2.53003 17.4699 3.64484 17.4699 5.02003L17.4699 14.98Z" fill="#636AE8"/>
<path d="M7.50998 7.51004L7.50998 12.49L12.49 12.49L12.49 7.51004L7.50998 7.51004ZM14.15 12.49C14.15 13.4069 13.4068 14.15 12.49 14.15L7.50998 14.15C6.59318 14.15 5.84998 13.4069 5.84998 12.49L5.84998 7.51004C5.84998 6.59324 6.59318 5.85004 7.50998 5.85004L12.49 5.85004C13.4068 5.85004 14.15 6.59324 14.15 7.51004L14.15 12.49Z" fill="#636AE8"/>
</svg>
