<svg width="22" height="20" viewBox="0 0 22 20" fill="none" xmlns="http://www.w3.org/2000/svg">
<path d="M14 19V17C14 16.2044 13.6837 15.4415 13.1211 14.8789C12.6289 14.3867 11.9835 14.0829 11.2969 14.0146L11 14L5 14C4.20435 14 3.44152 14.3163 2.87891 14.8789C2.3163 15.4415 2 16.2044 2 17L2 19C2 19.5523 1.55228 20 1 20C0.44772 20 0 19.5523 0 19L0 17C0 15.6739 0.52716 14.4025 1.46484 13.4648C2.40253 12.5272 3.67392 12 5 12L11 12L11.248 12.0059C12.4838 12.0672 13.6561 12.5858 14.5352 13.4648C15.4728 14.4025 16 15.6739 16 17V19C16 19.5523 15.5523 20 15 20C14.4477 20 14 19.5523 14 19Z" fill="#565D6D"/>
<path d="M16.9962 5.00008C16.9962 4.33559 16.7758 3.6897 16.3692 3.16415C16.0133 2.70415 15.5322 2.35885 14.9864 2.16805L14.7491 2.09579L14.6515 2.06551C14.1762 1.88941 13.9024 1.37825 14.0323 0.877042C14.1623 0.375962 14.6496 0.062892 15.1505 0.139732L15.2511 0.160242L15.4503 0.215902C16.4407 0.516892 17.3147 1.11916 17.9503 1.94051C18.6281 2.81649 18.9962 3.89248 18.9962 5.00008C18.9962 6.10769 18.6281 7.18367 17.9503 8.0597C17.2724 8.9356 16.3233 9.562 15.2511 9.8399C14.7165 9.9785 14.171 9.6576 14.0323 9.1231C13.8937 8.5886 14.2146 8.043 14.7491 7.90438C15.3924 7.7376 15.9625 7.36162 16.3692 6.83602C16.7759 6.31046 16.9962 5.66459 16.9962 5.00008Z" fill="#565D6D"/>
<path d="M19.9998 19.0001V17.0011L19.9891 16.7531C19.9409 16.1769 19.7273 15.6249 19.3709 15.1652C19.0145 14.7054 18.5332 14.3604 17.9871 14.1701L17.7498 14.0978L17.6521 14.0675C17.1767 13.8919 16.9026 13.3813 17.032 12.88C17.1615 12.3789 17.6483 12.0645 18.1492 12.1408L18.2498 12.1622L18.449 12.2179C19.4399 12.518 20.3156 13.1186 20.9519 13.9396C21.6306 14.8151 21.9989 15.8914 21.9998 16.9992V19.0001C21.9997 19.5524 21.552 20.0001 20.9998 20.0001C20.4476 20.0001 19.9999 19.5524 19.9998 19.0001Z" fill="#565D6D"/>
<path d="M11 5C11 3.34315 9.6569 2 8 2C6.34315 2 5 3.34315 5 5C5 6.65685 6.34315 8 8 8C9.6569 8 11 6.65685 11 5ZM13 5C13 7.76142 10.7614 10 8 10C5.23858 10 3 7.76142 3 5C3 2.23858 5.23858 0 8 0C10.7614 0 13 2.23858 13 5Z" fill="#565D6D"/>
</svg>
